<svg xmlns="http://www.w3.org/2000/svg" width="115.182" height="48.238" viewBox="0 0 115.182 48.238">
  <g id="bevel-branco" transform="translate(-197.99 -220.905)">
    <path id="Caminho_51" data-name="Caminho 51" d="M1317.44,388.189a.165.165,0,0,0-.168-.039,21.649,21.649,0,0,1-2.085.595,16.755,16.755,0,0,1-3.715.423q-5.911,0-6.5-6.179a.083.083,0,0,1,.082-.09h16.491a.082.082,0,0,0,.082-.081V381.3q0-12.468-11.1-12.468-5.908,0-9.185,3.352t-3.277,9.346q0,6.017,3.346,9.4t9.208,3.386a24.649,24.649,0,0,0,10.194-2.465.161.161,0,0,0,.048-.261Zm-10.156-13.051a4.525,4.525,0,0,1,3.23-1.107q3.671,0,3.96,4.391a.073.073,0,0,1-.072.077h-8.572a.073.073,0,0,1-.071-.084,5.649,5.649,0,0,1,1.525-3.277" transform="translate(-1016.948 -136.742)" fill="#fff"/>
    <path id="Caminho_52" data-name="Caminho 52" d="M231.664,235.321a10.157,10.157,0,0,0-8.008-3.219c-.388,0-12.678.02-13.049.06a8.951,8.951,0,0,0-5.26,2.424.16.16,0,0,1-.272-.115v-13.4a.159.159,0,0,0-.159-.159h-3.155a.165.165,0,0,0-.114.047l-3.61,3.61a.157.157,0,0,0-.047.113v32.74a.159.159,0,0,0,.159.159h10.987c.376,0,12.658-.01,13.02-.029a12.987,12.987,0,0,0,8.769-3.514q3.6-3.542,3.6-9.681,0-5.814-2.861-9.034m-4.921,14.157a4.976,4.976,0,0,1-2.835,1.485,1.8,1.8,0,0,1-.313.029c-1.16.014-12.95.1-13.383.1-1.024.01-3.543,0-3.916,0a.064.064,0,0,1-.067-.062v-8.971a.127.127,0,0,1,0-.034,4,4,0,0,1,1.632-2.224,5.073,5.073,0,0,1,2.938-.843c.134,0,13.163,0,13.291.012a3.922,3.922,0,0,1,2.983,1.449,6.862,6.862,0,0,1,1.159,4.329,6.728,6.728,0,0,1-1.5,4.732" fill="#fff"/>
    <path id="Caminho_53" data-name="Caminho 53" d="M1628.25,221.241V257a.331.331,0,0,0,.331.331H1635a.331.331,0,0,0,.331-.331V224.639a.333.333,0,0,0-.1-.234l-3.4-3.4a.332.332,0,0,0-.234-.1h-3.024a.331.331,0,0,0-.331.331" transform="translate(-1322.176)" fill="#fff"/>
    <path id="Caminho_54" data-name="Caminho 54" d="M714.446,388.192a.165.165,0,0,0-.168-.039,21.629,21.629,0,0,1-2.085.6,16.753,16.753,0,0,1-3.715.423q-5.911,0-6.5-6.179a.083.083,0,0,1,.082-.09h16.49a.082.082,0,0,0,.082-.081V381.3q0-12.47-11.1-12.47-5.908,0-9.185,3.352t-3.277,9.347q0,6.018,3.346,9.4t9.208,3.386a24.64,24.64,0,0,0,10.194-2.466.161.161,0,0,0,.048-.261ZM704.29,375.14a4.525,4.525,0,0,1,3.23-1.107q3.67,0,3.96,4.392a.073.073,0,0,1-.072.077h-8.573a.073.073,0,0,1-.071-.084,5.651,5.651,0,0,1,1.526-3.278" transform="translate(-459.516 -136.742)" fill="#fff"/>
    <path id="Caminho_55" data-name="Caminho 55" d="M1010.34,375.25h-6.9l-3.64,10.928q-.646,2.19-1.546,5.872-.144.643-.451,1.837a.082.082,0,0,1-.158,0l-.291-1.139q-1.038-4.287-1.754-6.524l-3.646-10.974H984.96l8.509,25h6.7a.1.1,0,0,0,.073-.03l2.42-2.444a.1.1,0,0,0,.024-.038l7.66-22.49" transform="translate(-727.499 -142.677)" fill="#fff"/>
    <path id="Caminho_56" data-name="Caminho 56" d="M1161.34,757.64a3.107,3.107,0,0,0-2.572,1.307,2.257,2.257,0,0,0-2.277-1.307,3.073,3.073,0,0,0-2.445,1.152l-.155-1.026h-1.1v7.4h1.349v-5.235a2.408,2.408,0,0,1,.9-.8,2.516,2.516,0,0,1,1.191-.3,1.4,1.4,0,0,1,1.089.373,1.748,1.748,0,0,1,.337,1.2v4.764h1.356v-4.806a2.14,2.14,0,0,0-.014-.281c-.009-.07-.014-.115-.014-.134a2.346,2.346,0,0,1,.893-.822,2.559,2.559,0,0,1,1.208-.288,1.4,1.4,0,0,1,1.082.373,1.749,1.749,0,0,1,.337,1.2v4.764h1.357V760.3a2.778,2.778,0,0,0-.643-1.988,2.472,2.472,0,0,0-1.878-.674" transform="translate(-882.656 -496.17)" fill="#fff"/>
    <path id="Caminho_57" data-name="Caminho 57" d="M1340.82,763.964a4.888,4.888,0,0,1-1.086.119,2.041,2.041,0,0,1-1.581-.611,2.719,2.719,0,0,1-.618-1.764h5.164v-.3a4.414,4.414,0,0,0-.763-2.832,2.813,2.813,0,0,0-2.315-.935,3.284,3.284,0,0,0-2.565,1,4.8,4.8,0,0,0,.014,5.632,3.338,3.338,0,0,0,2.593,1,5.353,5.353,0,0,0,1.342-.172,7.667,7.667,0,0,0,1.417-.537l-.841-.841a5.846,5.846,0,0,1-.761.236m-1.2-5.13a1.6,1.6,0,0,1,1.191.439,1.977,1.977,0,0,1,.488,1.3h-3.7a1.886,1.886,0,0,1,2.017-1.743" transform="translate(-1052.15 -496.17)" fill="#fff"/>
    <path id="Caminho_58" data-name="Caminho 58" d="M1458.77,725.951a7.432,7.432,0,0,0-1.567-.2,3.687,3.687,0,0,0-2.793,1.05,4.73,4.73,0,0,0-.158,5.625,3.038,3.038,0,0,0,2.4.963,2.78,2.78,0,0,0,1.184-.249,3.1,3.1,0,0,0,1.016-.8l.19.92h1.075V723.14h-1.349v2.811Zm0,4.793a2.24,2.24,0,0,1-.791,1.068,2.075,2.075,0,0,1-1.24.379,1.724,1.724,0,0,1-1.444-.654,3.556,3.556,0,0,1,.13-3.868,2.258,2.258,0,0,1,1.792-.727,5.291,5.291,0,0,1,.688.039q.288.039.865.179Z" transform="translate(-1160.54 -464.277)" fill="#fff"/>
    <rect id="Ret창ngulo_48" data-name="Ret창ngulo 48" width="1.349" height="1.384" transform="translate(302.929 258.864)" fill="#fff"/>
    <rect id="Ret창ngulo_49" data-name="Ret창ngulo 49" width="1.349" height="8.013" transform="translate(302.929 260.983)" fill="#fff"/>
    <path id="Caminho_59" data-name="Caminho 59" d="M1646.82,758.557a2.933,2.933,0,0,0-2.133-.727,6.157,6.157,0,0,0-1.381.165,6.866,6.866,0,0,0-1.367.467l.373,1.1a8.407,8.407,0,0,1,1.2-.39,4.641,4.641,0,0,1,1.075-.144,1.447,1.447,0,0,1,1.623,1.581v.2h-1.089a4.713,4.713,0,0,0-2.684.654,2.245,2.245,0,0,0-.3,3.422,2.514,2.514,0,0,0,1.764.6,3.481,3.481,0,0,0,2.431-1.005l.2.865h1.04v-4.708a2.764,2.764,0,0,0-.748-2.077m-.608,4.81a2.53,2.53,0,0,1-.921.671,2.81,2.81,0,0,1-1.152.249,1.523,1.523,0,0,1-.963-.271.929.929,0,0,1-.345-.776,1.142,1.142,0,0,1,.626-1.029,3.464,3.464,0,0,1,1.749-.369h1.005Z" transform="translate(-1334.406 -496.345)" fill="#fff"/>
    <path id="Caminho_60" data-name="Caminho 60" d="M1010.35,375.25h-6.9L999.8,386.178q-.646,2.19-1.546,5.872-.144.643-.451,1.837a.081.081,0,0,1-.157,0l-.291-1.139q-1.038-4.287-1.754-6.524l-3.646-10.974H984.97l8.509,25h1.675l6.7.015.831-2.507,7.667-22.511" transform="translate(-727.509 -142.677)" fill="#fff"/>
  </g>
</svg>
