<svg xmlns="http://www.w3.org/2000/svg" width="41.296" height="41.287" viewBox="0 0 41.296 41.287"><path d="M27.112,52.226A6.885,6.885,0,1,0,34,59.112,6.885,6.885,0,0,0,27.112,52.226Zm16.1-5.292a6.97,6.97,0,0,0-3.925-3.925c-2.711-1.07-9.164-.83-12.172-.83s-9.455-.249-12.173.83a6.97,6.97,0,0,0-3.925,3.925c-1.069,2.711-.83,9.171-.83,12.176s-.239,9.457.835,12.177a6.97,6.97,0,0,0,3.925,3.925c2.711,1.07,9.164.83,12.173.83s9.454.249,12.172-.83a6.97,6.97,0,0,0,3.925-3.925c1.078-2.711.83-9.171.83-12.176s.248-9.456-.83-12.176ZM27.112,69.7A10.571,10.571,0,1,1,34.6,66.6a10.584,10.584,0,0,1-7.488,3.1ZM38.132,50.553a1.024,1.024,0,1,1,.005.005ZM47.62,67.63c-.167,3.308-.922,6.24-3.337,8.648s-5.344,3.179-8.648,3.337c-3.409.192-13.629.192-17.038,0-3.308-.167-6.229-.923-8.648-3.337S6.769,70.932,6.612,67.63C6.42,64.22,6.42,54,6.612,50.592c.167-3.308.913-6.24,3.337-8.648s5.353-3.17,8.648-3.328c3.409-.192,13.629-.192,17.038,0,3.308.167,6.238.923,8.648,3.337s3.179,5.346,3.337,8.655C47.812,54,47.812,64.217,47.62,67.63Z" transform="translate(-6.468 -38.472)" fill="#271d1b"/></svg>