<svg xmlns="http://www.w3.org/2000/svg" width="132.522" height="40.721" viewBox="0 0 132.522 40.721"><g transform="translate(-832.295 -658.489)"><g transform="translate(833.167 658.489)"><path d="M834.462,659.561a2.434,2.434,0,0,1,.8-.454,2.781,2.781,0,0,1,.982-.2q.907,0,.906.857V669.4a4.545,4.545,0,0,0,.185,1.461,2.063,2.063,0,0,1-1.192.269,1.918,1.918,0,0,1-1.125-.252,1.067,1.067,0,0,1-.336-.907v-8.765Q834.68,659.746,834.462,659.561Z" transform="translate(-834.462 -658.738)" fill="#fff"/><path d="M861.372,659.107a2.417,2.417,0,0,1,.957-.2,1.808,1.808,0,0,1,.915.193,2.208,2.208,0,0,1,.647.646l5.088,7.858v-6.548a3.6,3.6,0,0,0-.218-1.646,1.555,1.555,0,0,1,.554-.344,1.9,1.9,0,0,1,.722-.16.839.839,0,0,1,.638.2.986.986,0,0,1,.185.672l-.033,9.151a12.661,12.661,0,0,0,.117,1.779,1.138,1.138,0,0,1-.528.286,2.614,2.614,0,0,1-.815.135,1.831,1.831,0,0,1-1.645-.756l-5.121-7.875v6.952a4.768,4.768,0,0,0,.185,1.394,1.409,1.409,0,0,1-1.007.286,1.175,1.175,0,0,1-.814-.218,1.11,1.11,0,0,1-.226-.806v-8.765a4.566,4.566,0,0,0-.2-1.864A1.661,1.661,0,0,1,861.372,659.107Z" transform="translate(-850.19 -658.738)" fill="#fff"/><path d="M903.317,668.7a1.264,1.264,0,0,1,.378-.932,1.49,1.49,0,0,1,.865-.445,2.637,2.637,0,0,0,1.243,1.646,4.31,4.31,0,0,0,2.25.57,3.609,3.609,0,0,0,1.872-.444,1.414,1.414,0,0,0,.748-1.285,1.106,1.106,0,0,0-.177-.621,1.623,1.623,0,0,0-.545-.487,7.132,7.132,0,0,0-.8-.4q-.428-.185-1.066-.42a.488.488,0,0,1-.1-.033.608.608,0,0,0-.084-.034l-.1-.034q-.084-.033-.554-.2t-.613-.227l-.562-.235a2.987,2.987,0,0,1-.588-.3c-.112-.084-.275-.2-.487-.344a1.667,1.667,0,0,1-.462-.437q-.143-.218-.328-.5a1.775,1.775,0,0,1-.252-.629,3.823,3.823,0,0,1-.067-.731,3.252,3.252,0,0,1,1.284-2.636,5.52,5.52,0,0,1,3.568-1.041,6.346,6.346,0,0,1,2.754.546q1.142.546,1.142,1.385a.983.983,0,0,1-.3.722,1.756,1.756,0,0,1-.839.437,2.468,2.468,0,0,0-1.133-1.125,3.932,3.932,0,0,0-1.94-.47,2.73,2.73,0,0,0-1.629.436,1.348,1.348,0,0,0-.6,1.142,1.165,1.165,0,0,0,.311.823,2.4,2.4,0,0,0,.756.545q.444.211,1.4.563c.033.012.061.02.084.025a.784.784,0,0,1,.092.033l.1.042c.028.011.059.023.093.034a15.623,15.623,0,0,1,2.619,1.192,2.727,2.727,0,0,1,1.36,2.385,3.285,3.285,0,0,1-1.41,2.8,6.323,6.323,0,0,1-3.812,1.033,6.876,6.876,0,0,1-3.19-.663A1.939,1.939,0,0,1,903.317,668.7Z" transform="translate(-875.629 -658.489)" fill="#fff"/><path d="M942.567,660.308a1.122,1.122,0,0,1,.269-.823,1.283,1.283,0,0,1,.924-.269h7.2a3.585,3.585,0,0,0,1.411-.185,1.975,1.975,0,0,1,.185.89q0,.991-1.175.99h-2.569v8.564a4.536,4.536,0,0,0,.185,1.461,2.062,2.062,0,0,1-1.192.269,1.877,1.877,0,0,1-1.117-.252,1.083,1.083,0,0,1-.327-.907v-9.135h-2.334a3.545,3.545,0,0,0-1.292.168A1.63,1.63,0,0,1,942.567,660.308Z" transform="translate(-899.095 -658.814)" fill="#fff"/><path d="M984.157,659.561a2.431,2.431,0,0,1,.8-.454,2.782,2.782,0,0,1,.982-.2q.907,0,.907.857V669.4a4.546,4.546,0,0,0,.185,1.461,2.063,2.063,0,0,1-1.192.269,1.917,1.917,0,0,1-1.125-.252,1.067,1.067,0,0,1-.336-.907v-8.765Q984.375,659.746,984.157,659.561Z" transform="translate(-923.961 -658.738)" fill="#fff"/><path d="M1008.041,660.308a1.122,1.122,0,0,1,.269-.823,1.283,1.283,0,0,1,.924-.269h7.2a3.585,3.585,0,0,0,1.411-.185,1.975,1.975,0,0,1,.185.89q0,.991-1.175.99h-2.569v8.564a4.536,4.536,0,0,0,.185,1.461,2.063,2.063,0,0,1-1.192.269,1.876,1.876,0,0,1-1.116-.252,1.083,1.083,0,0,1-.327-.907v-9.135H1009.5a3.549,3.549,0,0,0-1.293.168A1.635,1.635,0,0,1,1008.041,660.308Z" transform="translate(-938.241 -658.814)" fill="#fff"/><path d="M1050.144,659.107a2.851,2.851,0,0,1,.99-.2q.89,0,.89.857v7.187a3.2,3.2,0,0,0,.563,2.082,2.508,2.508,0,0,0,2.006.672,2.957,2.957,0,0,0,2.091-.68,2.655,2.655,0,0,0,.731-2.04v-5.725a3.872,3.872,0,0,0-.218-1.78,1.842,1.842,0,0,1,.6-.386,1.914,1.914,0,0,1,.781-.185q.772,0,.772.823v7.1a4.16,4.16,0,0,1-1.334,3.333,5.384,5.384,0,0,1-3.635,1.15q-4.82,0-4.819-4.248v-5.86q0-1.46-.218-1.646A2.428,2.428,0,0,1,1050.144,659.107Z" transform="translate(-962.931 -658.738)" fill="#fff"/><path d="M1090.926,660.308a1.122,1.122,0,0,1,.269-.823,1.284,1.284,0,0,1,.924-.269h7.2a3.584,3.584,0,0,0,1.411-.185,1.975,1.975,0,0,1,.185.89q0,.991-1.175.99h-2.569v8.564a4.536,4.536,0,0,0,.185,1.461,2.061,2.061,0,0,1-1.192.269,1.877,1.877,0,0,1-1.117-.252,1.083,1.083,0,0,1-.327-.907v-9.135h-2.334a3.545,3.545,0,0,0-1.292.168A1.63,1.63,0,0,1,1090.926,660.308Z" transform="translate(-987.796 -658.814)" fill="#fff"/><path d="M1131.439,660.235a5.514,5.514,0,0,1,4.282-1.746,5.238,5.238,0,0,1,4.139,1.721,6.584,6.584,0,0,1,1.52,4.526,6.507,6.507,0,0,1-1.595,4.567,5.515,5.515,0,0,1-4.282,1.746,5.25,5.25,0,0,1-4.139-1.713,6.526,6.526,0,0,1-1.52-4.5A6.593,6.593,0,0,1,1131.439,660.235Zm.924,4.534a5.951,5.951,0,0,0,.906,3.475,2.777,2.777,0,0,0,4.71.009,7.207,7.207,0,0,0,0-6.969,2.79,2.79,0,0,0-4.718,0A6.032,6.032,0,0,0,1132.363,664.769Z" transform="translate(-1011.064 -658.489)" fill="#fff"/></g><g transform="translate(832.789 686.633)"><path d="M833.524,730.338a1.121,1.121,0,0,1,.269-.823,1.284,1.284,0,0,1,.924-.269h7.2a3.585,3.585,0,0,0,1.411-.185,1.973,1.973,0,0,1,.185.89q0,.991-1.175.99h-2.569v8.563a4.53,4.53,0,0,0,.185,1.461,2.062,2.062,0,0,1-1.192.269,1.874,1.874,0,0,1-1.117-.252,1.082,1.082,0,0,1-.327-.907v-9.134h-2.334a3.548,3.548,0,0,0-1.292.168A1.628,1.628,0,0,1,833.524,730.338Z" transform="translate(-833.524 -728.827)" fill="#fff"/><path d="M878.238,729.5a1.937,1.937,0,0,1,.537-.2,3.614,3.614,0,0,1,.907-.1h5.675a5.131,5.131,0,0,0,1.36-.134,1.377,1.377,0,0,1,.185.756q0,1.024-1.075,1.024h-5.121v3.628l4.8-.1a2.95,2.95,0,0,1,.084.638q0,.957-.823.957-3.123,0-4.063-.033v1.981a1.762,1.762,0,0,0,.52,1.436,2.944,2.944,0,0,0,1.83.428,6.479,6.479,0,0,0,2.183-.336,2.96,2.96,0,0,0,1.394-.924,1.183,1.183,0,0,1,.419.462,1.337,1.337,0,0,1,.185.663q0,.773-1.217,1.268a8.69,8.69,0,0,1-3.215.5,6.207,6.207,0,0,1-3.434-.756,2.726,2.726,0,0,1-1.117-2.434v-6.767a3.562,3.562,0,0,0-.218-1.73A.7.7,0,0,1,878.238,729.5Z" transform="translate(-860.137 -728.827)" fill="#fff"/><path d="M921.338,729.324a6.945,6.945,0,0,1,1.956-.52,16.581,16.581,0,0,1,2.51-.2,6.781,6.781,0,0,1,4.769,1.562,5.659,5.659,0,0,1,1.7,4.382,6.078,6.078,0,0,1-6.65,6.566,10.394,10.394,0,0,1-2.8-.353q-1.259-.353-1.26-1.007v-8.7Q921.556,729.526,921.338,729.324Zm4.231,10.276q4.231,0,4.232-4.987,0-4.5-4.063-4.5a14.4,14.4,0,0,0-1.73.151v9.168A6.871,6.871,0,0,0,925.569,739.6Z" transform="translate(-886.026 -728.552)" fill="#fff"/><path d="M969.474,729.5a1.946,1.946,0,0,1,.537-.2,3.614,3.614,0,0,1,.907-.1h5.676a5.128,5.128,0,0,0,1.36-.134,1.374,1.374,0,0,1,.185.756q0,1.024-1.075,1.024h-5.121v3.628l4.8-.1a2.949,2.949,0,0,1,.084.638q0,.957-.823.957-3.123,0-4.063-.033v1.981a1.762,1.762,0,0,0,.52,1.436,2.945,2.945,0,0,0,1.83.428,6.479,6.479,0,0,0,2.183-.336,2.96,2.96,0,0,0,1.394-.924,1.183,1.183,0,0,1,.42.462,1.341,1.341,0,0,1,.185.663q0,.773-1.217,1.268a8.69,8.69,0,0,1-3.215.5,6.2,6.2,0,0,1-3.434-.756,2.726,2.726,0,0,1-1.117-2.434v-6.767a3.563,3.563,0,0,0-.218-1.73A.7.7,0,0,1,969.474,729.5Z" transform="translate(-914.685 -728.827)" fill="#fff"/><path d="M1010.654,738.727a1.263,1.263,0,0,1,.378-.932,1.491,1.491,0,0,1,.865-.445,2.636,2.636,0,0,0,1.242,1.646,4.308,4.308,0,0,0,2.25.571,3.607,3.607,0,0,0,1.872-.445,1.413,1.413,0,0,0,.748-1.285,1.1,1.1,0,0,0-.177-.621,1.627,1.627,0,0,0-.545-.487,7.13,7.13,0,0,0-.8-.4q-.428-.185-1.066-.42a.463.463,0,0,1-.1-.033.75.75,0,0,0-.084-.034l-.1-.034q-.084-.033-.554-.2t-.613-.226l-.563-.236a3.025,3.025,0,0,1-.588-.3q-.168-.127-.487-.345a1.67,1.67,0,0,1-.462-.436l-.327-.5a1.776,1.776,0,0,1-.252-.63,3.792,3.792,0,0,1-.067-.731,3.251,3.251,0,0,1,1.284-2.636,5.52,5.52,0,0,1,3.568-1.042,6.346,6.346,0,0,1,2.754.546q1.142.545,1.142,1.385a.985.985,0,0,1-.3.722,1.756,1.756,0,0,1-.839.436,2.47,2.47,0,0,0-1.133-1.124,3.933,3.933,0,0,0-1.94-.47,2.728,2.728,0,0,0-1.629.437,1.347,1.347,0,0,0-.6,1.142,1.167,1.167,0,0,0,.31.823,2.422,2.422,0,0,0,.756.545q.444.21,1.4.563c.033.011.062.02.084.025a.769.769,0,0,1,.092.033c.039.017.073.031.1.042s.059.023.093.034a15.606,15.606,0,0,1,2.619,1.192,2.728,2.728,0,0,1,1.36,2.385,3.287,3.287,0,0,1-1.41,2.8,6.324,6.324,0,0,1-3.812,1.033,6.88,6.88,0,0,1-3.19-.663A1.939,1.939,0,0,1,1010.654,738.727Z" transform="translate(-939.426 -728.502)" fill="#fff"/><path d="M1056.119,730.274a5.836,5.836,0,0,1,4.366-1.8,5.3,5.3,0,0,1,2.854.722,2.047,2.047,0,0,1,1.159,1.713,1.3,1.3,0,0,1-.521,1.058,2.166,2.166,0,0,1-1.309.453q-.319-2.4-2.351-2.4a3,3,0,0,0-2.5,1.259,5.5,5.5,0,0,0-.957,3.408,5.017,5.017,0,0,0,1.016,3.367,3.376,3.376,0,0,0,2.7,1.184,4.528,4.528,0,0,0,2.208-.546,3.807,3.807,0,0,0,1.52-1.453.568.568,0,0,1,.353.261,1.043,1.043,0,0,1,.185.647,2.5,2.5,0,0,1-1.276,2.006,5.781,5.781,0,0,1-3.392.9,5.52,5.52,0,0,1-4.307-1.637,6.184,6.184,0,0,1-1.486-4.324A6.654,6.654,0,0,1,1056.119,730.274Z" transform="translate(-965.564 -728.478)" fill="#fff"/><path d="M1101.946,729.137a2.715,2.715,0,0,1,.974-.2q.907,0,.907.857v4.517h5.256v-3.073a3.283,3.283,0,0,0-.218-1.646,2.227,2.227,0,0,1,.789-.453,2.816,2.816,0,0,1,.974-.2q.907,0,.907.857v9.638a4.532,4.532,0,0,0,.185,1.461,2.063,2.063,0,0,1-1.192.269,1.874,1.874,0,0,1-1.116-.252,1.082,1.082,0,0,1-.328-.907v-4.1h-5.256v3.526a4.556,4.556,0,0,0,.185,1.461,2.061,2.061,0,0,1-1.192.269,1.915,1.915,0,0,1-1.125-.252,1.066,1.066,0,0,1-.336-.907v-8.765q0-1.461-.218-1.646A2.433,2.433,0,0,1,1101.946,729.137Z" transform="translate(-993.525 -728.752)" fill="#fff"/><path d="M1149.785,729.591a2.438,2.438,0,0,1,.8-.453,2.78,2.78,0,0,1,.982-.2q.907,0,.906.857v9.638a4.54,4.54,0,0,0,.185,1.461,2.063,2.063,0,0,1-1.192.269,1.916,1.916,0,0,1-1.125-.252A1.066,1.066,0,0,1,1150,740v-8.765Q1150,729.776,1149.785,729.591Z" transform="translate(-1022.609 -728.752)" fill="#fff"/></g><rect width="132.522" height="1.639" transform="translate(832.295 677.146)" fill="#fff"/></g></svg>