<svg xmlns="http://www.w3.org/2000/svg" width="32.654" height="32.647" viewBox="0 0 32.654 32.647">
  <path id="insta-grey" d="M22.792,49.347a5.444,5.444,0,1,0,5.446,5.445A5.444,5.444,0,0,0,22.792,49.347ZM35.52,45.163a5.511,5.511,0,0,0-3.1-3.1c-2.143-.846-7.247-.656-9.625-.656s-7.476-.2-9.626.656a5.512,5.512,0,0,0-3.1,3.1c-.845,2.143-.656,7.252-.656,9.628s-.189,7.478.66,9.629a5.512,5.512,0,0,0,3.1,3.1c2.143.846,7.247.656,9.626.656s7.475.2,9.625-.656a5.512,5.512,0,0,0,3.1-3.1c.852-2.143.656-7.252.656-9.628s.2-7.477-.656-9.628Zm-12.729,18a8.359,8.359,0,1,1,5.921-2.448,8.369,8.369,0,0,1-5.921,2.448Zm8.714-15.136a1.943,1.943,0,1,1,1.385-.57,1.954,1.954,0,0,1-1.385.57Zm7.5,13.5a9.711,9.711,0,0,1-2.638,6.838A9.716,9.716,0,0,1,29.531,71c-2.7.152-10.777.152-13.473,0A9.729,9.729,0,0,1,9.22,68.366a9.682,9.682,0,0,1-2.638-6.838c-.152-2.7-.152-10.779,0-13.473A9.68,9.68,0,0,1,9.22,41.217a9.734,9.734,0,0,1,6.838-2.631c2.7-.152,10.777-.152,13.473,0a9.717,9.717,0,0,1,6.838,2.638,9.717,9.717,0,0,1,2.638,6.843C39.16,50.754,39.16,58.829,39.008,61.528Z" transform="translate(-6.468 -38.472)" fill="#4e4d52"/>
</svg>
