<svg xmlns="http://www.w3.org/2000/svg" width="27.132" height="27.126" viewBox="0 0 27.132 27.126"><path d="M20.031,47.508a4.523,4.523,0,1,0,4.525,4.524A4.523,4.523,0,0,0,20.031,47.508Zm10.576-3.477a4.579,4.579,0,0,0-2.579-2.579c-1.781-.7-6.021-.545-8-.545s-6.212-.164-8,.545a4.579,4.579,0,0,0-2.579,2.579c-.7,1.781-.545,6.025-.545,8s-.157,6.214.549,8a4.579,4.579,0,0,0,2.579,2.579c1.781.7,6.021.545,8,.545s6.211.164,8-.545a4.579,4.579,0,0,0,2.579-2.579c.708-1.781.545-6.025.545-8s.163-6.213-.545-8ZM20.031,58.985a6.945,6.945,0,1,1,4.92-2.034,6.954,6.954,0,0,1-4.92,2.034Zm7.241-12.576a1.614,1.614,0,1,1,1.15-.474,1.623,1.623,0,0,1-1.15.474ZM33.5,57.629a8.069,8.069,0,0,1-2.192,5.682A8.073,8.073,0,0,1,25.63,65.5c-2.24.126-8.954.126-11.194,0A8.084,8.084,0,0,1,8.755,63.31a8.045,8.045,0,0,1-2.192-5.682c-.126-2.241-.126-8.956,0-11.194a8.043,8.043,0,0,1,2.192-5.682,8.087,8.087,0,0,1,5.682-2.186c2.24-.126,8.954-.126,11.194,0a8.074,8.074,0,0,1,5.682,2.192A8.073,8.073,0,0,1,33.5,46.445C33.631,48.677,33.631,55.386,33.5,57.629Z" transform="translate(-6.468 -38.472)" fill="#fff"/></svg>