<?xml version="1.0" encoding="utf-8"?>
<!-- Generator: Adobe Illustrator 23.0.1, SVG Export Plug-In . SVG Version: 6.00 Build 0)  -->
<svg version="1.1" id="Camada_1" xmlns="http://www.w3.org/2000/svg" xmlns:xlink="http://www.w3.org/1999/xlink" x="0px" y="0px"
	 viewBox="0 0 1080 1080" style="enable-background:new 0 0 1080 1080;" xml:space="preserve">
<style type="text/css">
	.st0{fill:#9D724C;}
	.st1{fill:#9D724C;stroke:#9D724C;stroke-width:0.75;stroke-miterlimit:10;}
</style>
<g>
	<path class="st0" d="M587.22,372.9L444.19,641.87c17.61,27.22,41.09,46.96,74.71,53.9l-1.07,2.67
		c-168.11,16.01-156.9-246.02-250.29-323.41v334.61c0,18.15,12.81,22.41,27.75,28.29v2.67h-67.24v-2.67
		c15.48-5.87,28.29-10.14,28.29-28.29V367.03c-12.81-8-27.75-12.81-44.83-13.34v-8.54c162.24,3.74,166.51,184.12,225.74,285.52
		l149.43-280.18h67.24v2.67c-14.94,5.34-27.75,10.14-27.75,27.75v328.74c0,18.15,12.81,22.41,27.75,28.29v2.67h-94.46v-2.67
		c14.94-5.87,27.75-10.14,27.75-28.29V372.9z"/>
	<path class="st0" d="M693.47,361.24v348.49c0,18.14-12.83,22.39-27.76,28.27v2.67h94.44V738c-14.93-5.88-27.73-10.13-27.73-28.27
		V361.24h31.49c33.61,0,67.77,15.47,101.93,78.97h2.64l-25.61-100.87h-2.67c0,6.4-3.19,11.22-10.13,11.22h-136.7"/>
</g>
</svg>
