<svg id="Camada_1" data-name="Camada 1" xmlns="http://www.w3.org/2000/svg" viewBox="0 0 839.46 993.09"><defs><style>.cls-1{font-size:35.25px;font-family:Montserrat-SemiBold, Montserrat;font-weight:600;}.cls-2{letter-spacing:-0.02em;}.cls-3{letter-spacing:0em;}.cls-4{letter-spacing:-0.01em;}.cls-5{letter-spacing:-0.01em;}.cls-6{letter-spacing:0em;}.cls-7{letter-spacing:-0.01em;}.cls-8,.cls-9{fill:#3a2814;}.cls-9{font-size:99.88px;font-family:HalimunRegular, Halimun;}.cls-10{letter-spacing:-0.02em;}.cls-11{letter-spacing:-0.02em;}.cls-12{letter-spacing:0em;}</style></defs><title>Mentoria_cosmeticos_logo</title><text class="cls-1" transform="translate(0.18 936.75)">halimun</text><text class="cls-1" transform="translate(0.18 983.75)">Ab<tspan class="cls-2" x="50.59" y="0">ov</tspan><tspan x="92.65" y="0">e t</tspan><tspan class="cls-3" x="139.25" y="0">h</tspan><tspan x="163.57" y="0">e B</tspan><tspan class="cls-4" x="222.06" y="0">e</tspan><tspan class="cls-5" x="243.63" y="0">y</tspan><tspan x="263.48" y="0">o</tspan><tspan class="cls-3" x="286.22" y="0">n</tspan><tspan class="cls-6" x="310.54" y="0">d Se</tspan><tspan class="cls-7" x="388.6" y="0">r</tspan><tspan class="cls-6" x="403.23" y="0">if Regular</tspan></text><path class="cls-8" d="M302.49,280.13c0,.37-.65.56-1.84.56-.92,0-2.29-.1-4-.28s-3.12-.18-3.95-.18c-1,0-2.38.09-4.13.18s-3,.28-3.86.28c-1.19,0-1.83-.19-1.83-.56s.64-.55,1.83-.64c4.14-.37,5.15-2.85,5.15-9.36V230c0-3.58-.28-3.67-1.66-.46l-21.21,50c-.46,1-.82,1.56-1.19,1.56s-.92-.45-1.29-1.46l-22.4-51c-.92-2.21-1.19-1.93-1.19.27l-.65,41.14c-.09,6.51,1,9,5.15,9.36,1.19.09,1.83.37,1.83.64s-.64.56-1.83.56-4.41-.46-6.25-.46c-1.47,0-5,.46-7.25.46-1.2,0-1.84-.19-1.84-.56s.64-.55,1.84-.64c5.14-.46,6.06-2.66,6.33-9.36l1.57-42.7c.27-5.23-1.11-7.62-5.05-8-1.2-.09-1.84-.37-1.84-.64s.64-.55,1.84-.55a38.05,38.05,0,0,1,3.85.27c1.65.1,2.85.19,3.67.19a2.15,2.15,0,0,1,2.21,1.37l23.69,53.54L290,220.18a2.07,2.07,0,0,1,2.11-1.47h.55c1,0,2.3-.09,4-.19s3.12-.27,3.95-.27c1.19,0,1.84.18,1.84.55s-.65.55-1.84.64c-4.13.37-5.14,2.85-5.14,9.37v41.32c0,6.51,1,9,5.14,9.36C301.84,279.58,302.49,279.86,302.49,280.13Z" transform="translate(-73.55 -216.22)"/><path class="cls-8" d="M328.57,280.13c0-.27.64-.55,1.84-.64,4.13-.37,5.14-2.85,5.14-9.36V228.81c0-6.52-1-9-5.14-9.37-1.2-.09-1.84-.37-1.84-.64s.64-.55,1.84-.55c1.56,0,6.24.46,8.9.46.83,0,6.34-.09,16.44-.28,6.24-.09,9.73-.18,10.37-.18,1.47,0,1.66.55,1.93,2.11a68.55,68.55,0,0,0,1.38,7.81c.27,1.19.27,1.83-.18,1.92s-.74-.36-1.2-1.56c-2.48-5.78-5.42-7.8-12.3-8.45a96.59,96.59,0,0,0-12.67-.09c-1.56.09-1.84.46-1.84,3.4v24h11.48c6.61,0,9.55-1.93,9.91-6.34.1-1.19.37-1.84.65-1.84s.55.65.55,1.84c0,.92-.09,2.2-.19,3.76s-.18,2.67-.18,3.31.09,1.84.18,3.58.19,3,.19,4c0,1.19-.19,1.83-.55,1.83s-.55-.64-.65-1.83c-.36-4.5-3.67-6.8-9.91-6.8H341.24v18.55c0,8.82,3.58,11.75,11.66,11.75,1.56,0,3.31-.09,5.14-.27,6.71-.55,10.84-4.22,12.4-11.11.27-1.19.64-1.75,1.1-1.65s.46.73.28,1.92c-.83,4.87-1.29,8.36-1.47,10.56a3,3,0,0,1-.55,1.66,1.94,1.94,0,0,1-1.38.46c-.64,0-4.13-.1-10.38-.19-9.18-.18-15.51-.27-19.1-.27-1.19,0-2.75.09-4.59.18s-3.12.28-3.94.28C329.21,280.69,328.57,280.5,328.57,280.13Z" transform="translate(-73.55 -216.22)"/><path class="cls-8" d="M408.09,225.41l-.19-.28c-.55-.55-.82-.64-.82-.36a12.77,12.77,0,0,0-.09,2.39v1.65l-.09,41.32c0,6.51,1,9,5.14,9.36,1.19.09,1.83.37,1.83.64s-.64.56-1.83.56-4.5-.46-6.43-.46c-1.38,0-4.87.46-7.07.46-1.19,0-1.84-.19-1.84-.56s.65-.55,1.84-.64c5.23-.46,6.24-2.75,6.34-9.36l.82-41.32c.09-6.89-.92-9-5.05-9.37-1.19-.09-1.83-.37-1.83-.64s.64-.55,1.83-.55c.83,0,2.11.09,3.86.27s3,.19,3.95.19h.46a2.7,2.7,0,0,1,2.2,1.19l41.5,49.77c1,1.19,1.1,1.19,1.1-.37l-.55-40.49c-.09-6.52-1.19-9-5.32-9.37-1.2-.09-1.84-.37-1.84-.64s.64-.55,1.84-.55,4.5.46,6.42.46c1.38,0,4.87-.46,7.07-.46,1.2,0,1.84.18,1.84.55s-.64.55-1.84.64c-5.14.46-6.06,2.67-6.15,9.37L455,278.39c0,3.67-.83,3.12-1.93,1.74Z" transform="translate(-73.55 -216.22)"/><path class="cls-8" d="M539,217.24a104.17,104.17,0,0,0-1,11.38c0,1.2-.37,1.84-.64,1.84-.46-.09-.74-.73-.74-1.93,0-3.49-.55-5.78-1.56-6.88s-3.12-1.75-6.52-1.84h-13.5v50.32c0,6.51,1,9,5.15,9.36,1.19.09,1.83.37,1.83.64s-.64.56-1.83.56c-.92,0-2.3-.1-4.05-.28s-3.12-.18-3.94-.18c-1,0-2.39.09-4.13.18s-3,.28-3.86.28c-1.2,0-1.84-.19-1.84-.56s.64-.55,1.84-.64c4.13-.37,5.14-2.85,5.14-9.36V219.81H496.79c-3.3.09-5.6.64-7,1.84s-2.48,3.39-3.49,6.79c-.36,1.19-.73,1.74-1.19,1.65s-.46-.73-.18-1.92a52.4,52.4,0,0,0,1.47-10.93c0-.64.27-1,.73-1,.28,0,.46.18.55.64.37,2.39,6.25,1.56,9.09,1.84h31.77c2.76-.28,8.82.55,9.18-1.84C537.93,215.86,539.21,216.05,539,217.24Z" transform="translate(-73.55 -216.22)"/><path class="cls-8" d="M572.36,272.15a31.43,31.43,0,0,1-8.72-22.5c0-9.18,3-16.8,9.18-22.77s13.77-9.09,23-9.09c10.1,0,17.9,2.85,23.5,8.63s8.45,13.5,8.45,23.23c0,8.91-2.94,16.34-8.91,22.4s-13.58,9.09-23,9.09C586,281.14,578.15,278.11,572.36,272.15Zm42.7-.28c4.13-5.32,6.15-12,6.15-20,0-9.09-2.39-16.89-7.25-23.23a22.75,22.75,0,0,0-19.1-9.55c-7.81,0-13.78,2.76-18.09,8.27s-6.43,12.3-6.43,20.47c0,9,2.39,16.62,7.26,22.77s11.47,9.28,19.83,9.28Q609,279.86,615.06,271.87Z" transform="translate(-73.55 -216.22)"/><path class="cls-8" d="M709.36,280c0,.28-.55.55-1.65.74a34.6,34.6,0,0,1-5.51.36,8.17,8.17,0,0,1-6.61-3.12,33.42,33.42,0,0,1-4.59-7.44l-5.79-12.3c-2.93-6.24-6.06-8.35-10.92-9.09-2.57-.27-4.5-.37-5.7-.46v21.4c0,6.51,1,9,5.15,9.36,1.19.09,1.83.37,1.83.64s-.64.56-1.83.56c-.83,0-2.21-.1-4-.28s-3.12-.18-4-.18-2.39.09-4.13.18-3,.28-3.86.28c-1.19,0-1.84-.19-1.84-.56s.65-.55,1.84-.64c4.13-.37,5.14-2.85,5.14-9.36V228.81c0-6.52-1-9-5.14-9.37-1.19-.09-1.84-.37-1.84-.64s.65-.55,1.84-.55c.83,0,2.11.09,3.86.27s3.12.19,4.13.19c1.47,0,3.85-.19,7.16-.46s5.88-.46,7.62-.46A17.74,17.74,0,0,1,693,222.47c3.4,3.12,5.14,6.61,5.14,10.56,0,9.92-6.61,15.06-16.53,16.07a15.21,15.21,0,0,1,10,8.54l4.59,10c3.67,8.17,6.89,12,11.3,12C708.72,279.68,709.36,279.77,709.36,280Zm-40.77-32.41c5.42.55,9.46.64,12.22.18,7.43-1.1,11.2-6,11.2-14.59,0-8.09-5.24-13.59-16-13.59a48.61,48.61,0,0,0-7.44.64Z" transform="translate(-73.55 -216.22)"/><path class="cls-8" d="M749.58,280.23c0,.36-.64.55-1.83.55-.83,0-2.21-.09-4-.28s-3.12-.18-4-.18-2.39.09-4.13.18-3,.28-3.86.28c-1.19,0-1.84-.19-1.84-.55s.65-.55,1.84-.65c4.13-.36,5.14-2.84,5.14-9.36V228.81c0-6.52-1-9-5.14-9.37-1.19-.09-1.84-.37-1.84-.64s.65-.55,1.84-.55c.83,0,2.11.09,3.86.27s3.12.19,4.13.19,2.29-.09,4-.19,3.12-.27,4-.27c1.19,0,1.83.18,1.83.55s-.64.55-1.83.64c-4.14.37-5.15,2.85-5.15,9.37v41.41c0,6.52,1,9,5.15,9.36C748.94,279.68,749.58,280,749.58,280.23Z" transform="translate(-73.55 -216.22)"/><path class="cls-8" d="M835.53,280c0,.37-.65.55-1.84.55-.83,0-2.2-.09-4-.18s-3-.09-3.85-.09-2.3.09-4.23.18-3.21.28-4.13.28c-1.19,0-1.84-.19-1.84-.56s.65-.55,1.84-.64q6.75-.4,3.31-8.54l-7.17-17.44h-22.4l-6.52,17.07c-2.29,5.88-1.56,8.54,3.31,8.91,1.19.09,1.83.37,1.83.64s-.64.56-1.83.56c-1.75,0-5.7-.46-7.44-.46-1.47,0-5.23.46-6.79.46-1.2,0-1.84-.19-1.84-.56s.55-.55,1.74-.64c3.68-.27,6.25-3.12,8.91-9.73l18-44.07.55-1.75a5.35,5.35,0,0,1,.55-2.48,17.41,17.41,0,0,0,1.74-3c.37-1,.65-1.56.92-1.56s.64.46,1,1.47L826.16,269c3,7.44,4.68,9.83,7.62,10.29C835,279.49,835.53,279.68,835.53,280Zm-43.71-28H813l-11-26.82Z" transform="translate(-73.55 -216.22)"/><path class="cls-8" d="M711.49,410.78c12.09-28.2,14.51-27.4,14.51,4v95.34h50V404.32c0-57.22,8.86-79,45.14-82.2,10.47-.81,16.13-3.23,16.13-5.65,0-3.23-5.66-4.85-16.13-4.85-7.27,0-19.35.81-34.67,2.42-15.31.81-26.59,1.62-35.47,1.62h-4.82c-8.88,0-15.32,4-18.55,12.89L653.34,510.16h16Zm109.63,438.5c-36.28-3.23-45.14-25-45.14-82.2V671.7H726v95.38c0,57.22-8.86,79-45.14,82.2-10.47.8-16.12,3.23-16.12,5.65,0,3.23,5.65,4.85,16.12,4.85,7.24,0,18.55-.81,33.86-2.43,15.32-.8,27.4-1.61,36.26-1.61,7.26,0,19.35.81,34.66,1.61,15.32,1.62,27.4,2.43,35.48,2.43,10.47,0,16.13-1.62,16.13-4.85C837.25,852.51,831.59,850.08,821.12,849.28ZM535.75,797.71,480,671.7H424.72l78.79,179.19c3.23,8.89,7.27,12.89,11.3,12.89,3.23,0,6.43-4.81,10.47-13.7L600.9,671.7H587.29Zm-227.31-482c-7.23,0-17.73-.81-32.24-1.62q-21.76-2.42-33.83-2.42c-10.5,0-16.16,1.62-16.16,4.85,0,2.42,5.66,4.84,16.16,5.65,34.64,3.2,46.72,24.17,44.33,70.12l-4.32,117.92h12.33l1.65-104.22c0-19.36,2.42-21.78,10.47-2.43l46.88,106.65h54.8L327.8,327.74C324.57,319.7,318.14,315.66,308.44,315.66Zm27.4,533.62c-36.25-3.23-45.94-25-45.13-82.2l1.49-95.38H276.45L273,767.08c-2.4,58.83-10.47,78.19-55.61,82.2-10.47.8-16.12,3.23-16.12,5.65,0,3.23,5.65,4.85,16.12,4.85,19.35,0,50.79-4,63.68-4,16.13,0,44.33,4,54.8,4S352,858.16,352,854.93C352,852.51,346.34,850.08,335.84,849.28Z" transform="translate(-73.55 -216.22)"/><text class="cls-9" transform="translate(93.45 407.19)">C<tspan class="cls-10" x="88.49" y="0">o</tspan><tspan x="155.91" y="0">smét</tspan><tspan class="cls-11" x="469.43" y="0">i</tspan><tspan class="cls-12" x="529.16" y="0">c</tspan><tspan class="cls-11" x="609.17" y="0">o</tspan><tspan x="676.59" y="0">s</tspan></text><path class="cls-8" d="M526.87,572.54c-1,2.46-4.71,7.55-8,7.86a2.94,2.94,0,0,1-2.77-1.38c-.23-.39.27,0,.88-.31,3.36-1.55,5.33-7,6.37-9.37C524.67,568.3,527.79,569.88,526.87,572.54Z" transform="translate(-73.55 -216.22)"/></svg>